<?xml version="1.0" encoding="UTF-8"?>
<svg id="Layer_1" data-name="Layer 1" xmlns="http://www.w3.org/2000/svg" viewBox="0 0 480 480">
  <defs>
    <style>
      .cls-1 {
        fill: #fff;
      }
    </style>
  </defs>
  <g id="Layer_3" data-name="Layer 3">
    <path class="cls-1" d="m240,0C107.45,0,0,107.45,0,240s107.45,240,240,240,240-107.45,240-240S372.55,0,240,0Zm10.29,147.42c45.42.05,82.24,36.86,82.29,82.29h-20.58c-.04-34.07-27.64-61.68-61.71-61.71v-20.58Zm66.64,236.58c-.62,0-62.4-1.06-141.84-79.09-78.03-79.41-79.09-141.22-79.09-141.84,0-7.7,48-67.07,58.61-67.07,3.68,0,6.54,2.5,9.68,6.24,7.55,8.99,40.94,61.7,39.41,70.48-.74,4.13-4.24,7.26-14.29,15.7-4.95,3.89-9.58,8.17-13.86,12.8,2.05,8.47,5.09,16.66,9.06,24.42,14.79,30.41,39.37,54.98,69.79,69.76,7.75,3.97,15.95,7.01,24.42,9.06,4.63-4.27,8.91-8.9,12.8-13.86,8.43-10.05,11.57-13.55,15.7-14.29,8.78-1.6,61.49,31.86,70.48,39.41,3.74,3.2,6.24,6,6.24,9.68-.03,10.61-59.41,58.61-67.1,58.61Zm46.5-154.29c-.07-62.45-50.68-113.07-113.14-113.14v-20.58c73.81.09,133.62,59.9,133.71,133.71h-20.58Z"/>
  </g>
</svg>