<svg width="46" height="47" viewBox="0 0 46 47" fill="none" xmlns="http://www.w3.org/2000/svg">
<path d="M0 40.122H25.6189C22.6933 35.4376 21.4667 29.9652 21.4667 26.322V24.7886H23C25.6488 24.7886 31.3053 22.6596 33.2733 20.0353L34.5 18.4L35.7267 20.0353C36.0119 20.4156 36.3806 20.7828 36.8 21.1378V0H0V40.122ZM23 11.5H26.0667V8.43333H29.9V11.5H32.9667V15.3333H29.9V18.4H26.0667V15.3333H23V11.5ZM4.6 18.4C4.6 16.57 5.32696 14.815 6.62096 13.521C7.91496 12.227 9.67001 11.5 11.5 11.5C10.4832 11.4999 9.50815 11.0959 8.78927 10.3769C8.07038 9.65783 7.66656 8.68266 7.66667 7.6659C7.66677 6.64913 8.07077 5.67405 8.78981 4.95516C9.50884 4.23628 10.484 3.83246 11.5008 3.83257C12.0042 3.83262 12.5027 3.93183 12.9678 4.12454C13.4329 4.31725 13.8555 4.59968 14.2115 4.95571C14.5675 5.31174 14.8498 5.73439 15.0424 6.19954C15.235 6.66468 15.3341 7.16322 15.3341 7.66667C15.334 8.17012 15.2348 8.66863 15.0421 9.13374C14.8494 9.59885 14.567 10.0214 14.211 10.3774C13.8549 10.7334 13.4323 11.0157 12.9671 11.2083C12.502 11.4009 12.0035 11.5001 11.5 11.5C13.33 11.5 15.085 12.227 16.379 13.521C17.673 14.815 18.4 16.57 18.4 18.4V20.7H4.6V18.4ZM4.6 24.7886H18.4V26.322H4.6V24.7886ZM4.6 27.8553H18.4V29.3886H4.6V27.8553ZM4.6 30.922H18.4V32.4553H4.6V30.922Z" fill="url(#paint0_linear_2341_8)"/>
<path d="M34.5 46.2553C42.9333 42.422 46 31.6887 46 26.322C42.9333 26.322 36.8 24.022 34.5 20.9553C32.2 24.022 26.0667 26.322 23 26.322C23 31.6887 26.0667 42.422 34.5 46.2553ZM34.5 27.0887C35.3133 27.0887 36.0933 27.4118 36.6685 27.9869C37.2436 28.562 37.5667 29.342 37.5667 30.1553C37.5667 31.2877 36.9464 32.2652 36.0333 32.7965L36.8 38.5887H32.2L32.9667 32.7965C32.0536 32.2652 31.4333 31.2877 31.4333 30.1553C31.4333 29.342 31.7564 28.562 32.3315 27.9869C32.9067 27.4118 33.6867 27.0887 34.5 27.0887Z" fill="url(#paint1_linear_2341_8)"/>
<defs>
<linearGradient id="paint0_linear_2341_8" x1="-15.2743" y1="13.5627" x2="172.385" y2="43.9669" gradientUnits="userSpaceOnUse">
<stop stop-color="#69A101"/>
<stop offset="1" stop-color="#002D3E"/>
</linearGradient>
<linearGradient id="paint1_linear_2341_8" x1="13.4536" y1="29.5076" x2="130.793" y2="48.3507" gradientUnits="userSpaceOnUse">
<stop stop-color="#69A101"/>
<stop offset="1" stop-color="#002D3E"/>
</linearGradient>
</defs>
</svg>
