<svg width="46" height="46" viewBox="0 0 46 46" fill="none" xmlns="http://www.w3.org/2000/svg">
<path d="M30.7534 15.0464L30.92 9.60209C30.9668 8.07422 29.763 6.79379 28.2318 6.74186C26.7004 6.69002 25.421 7.88654 25.3743 9.41432L24.8865 18.1736L30.7534 15.0464Z" fill="url(#paint0_linear_2341_12)"/>
<path d="M9.08105 45.9998H28.9024L37.2556 35.284L25.023 25.649L9.08105 45.9998Z" fill="url(#paint1_linear_2341_12)"/>
<path d="M45.3826 30.5175C46.3663 29.2686 46.1513 27.4587 44.9024 26.475C43.6535 25.4913 41.8436 25.7063 40.8598 26.9552L41.8009 25.7604C42.7846 24.5115 42.5696 22.7016 41.3207 21.7178C40.0928 20.7507 38.3233 20.9429 37.3292 22.1365L37.9654 21.3289C38.9491 20.08 38.7341 18.2701 37.4852 17.2863C36.2388 16.3046 34.4338 16.5169 33.4488 17.7592L39.6365 9.90315C40.6203 8.65416 40.4053 6.8441 39.1563 5.86032C37.9073 4.87654 36.0973 5.09154 35.1135 6.34053L29.0171 14.0806C24.0306 18.962 19.2577 22.523 18.4223 24.9957C16.535 30.5822 20.6539 35.4965 24.241 37.7683L28.554 41.1655C31.5626 43.5351 35.9242 43.0158 38.2951 40.0057L45.3826 30.5175Z" fill="url(#paint2_linear_2341_12)"/>
<path d="M5.38719 0.000244141C6.86708 0.000244141 8.08139 0.533191 8.97829 1.18096C9.87519 0.533191 11.0894 0.000244141 12.5694 0.000244141C15.5897 0.000244141 17.9561 2.65069 17.9561 6.03372C17.9561 8.20073 16.897 12.3871 9.80332 16.0866C9.54466 16.2227 9.26147 16.2898 8.97829 16.2898C8.69511 16.2898 8.41192 16.2226 8.15326 16.0866C1.05955 12.3871 0.000488281 8.20073 0.000488281 6.03372C0.000488281 2.65069 2.36677 0.000244141 5.38719 0.000244141Z" fill="url(#paint3_linear_2341_12)"/>
<defs>
<linearGradient id="paint0_linear_2341_12" x1="22.3817" y1="10.6051" x2="53.6913" y2="13.5243" gradientUnits="userSpaceOnUse">
<stop stop-color="#69A101"/>
<stop offset="1" stop-color="#002D3E"/>
</linearGradient>
<linearGradient id="paint1_linear_2341_12" x1="-2.61309" y1="32.5283" x2="136.512" y2="66.5519" gradientUnits="userSpaceOnUse">
<stop stop-color="#69A101"/>
<stop offset="1" stop-color="#002D3E"/>
</linearGradient>
<linearGradient id="paint2_linear_2341_12" x1="6.30506" y1="17.8885" x2="150.576" y2="36.9986" gradientUnits="userSpaceOnUse">
<stop stop-color="#69A101"/>
<stop offset="1" stop-color="#002D3E"/>
</linearGradient>
<linearGradient id="paint3_linear_2341_12" x1="-7.45219" y1="5.5067" x2="83.0823" y2="23.1348" gradientUnits="userSpaceOnUse">
<stop stop-color="#69A101"/>
<stop offset="1" stop-color="#002D3E"/>
</linearGradient>
</defs>
</svg>
