<svg width="57" height="56" viewBox="0 0 57 56" fill="none" xmlns="http://www.w3.org/2000/svg">
<path d="M42.5997 44.4583C43.4485 44.959 44.4507 45.1328 45.4184 44.9474C46.3862 44.7619 47.2531 44.2298 47.8566 43.4509C48.4601 42.6719 48.7587 41.6996 48.6966 40.7162C48.6344 39.7328 48.2157 38.8058 47.519 38.109C46.8222 37.4123 45.8952 36.9936 44.9118 36.9314C43.9284 36.8693 42.9561 37.1679 42.1771 37.7714C41.3982 38.3749 40.8661 39.2418 40.6806 40.2096C40.4952 41.1773 40.669 42.1795 41.1697 43.0282L43.9368 40.261C44.1265 40.0714 44.3838 39.9648 44.652 39.9648C44.9203 39.9648 45.1775 40.0714 45.3672 40.261C45.5569 40.4507 45.6634 40.708 45.6634 40.9762C45.6634 41.2445 45.5569 41.5017 45.3672 41.6914L42.5997 44.4583ZM31.6041 49.7353L29.6279 51.7103L31.7729 52.426L33.7483 50.4504L31.6041 49.7353Z" fill="url(#paint0_linear_2328_39)"/>
<path d="M44.6517 28.8462C42.3386 28.8456 40.0737 29.5065 38.1239 30.7509C36.1742 31.9954 34.6211 33.7715 33.6477 35.8697C32.6742 37.9679 32.3212 40.3008 32.6302 42.5931C32.9391 44.8854 33.8972 47.0415 35.3914 48.8071L36.8286 47.37C35.185 45.3596 34.377 42.7945 34.5716 40.2051C34.7662 37.6158 35.9487 35.2002 37.8743 33.4582C39.7999 31.7162 42.3215 30.7809 44.9173 30.8458C47.5132 30.9108 49.9848 31.9709 51.8209 33.8071C53.6571 35.6432 54.7172 38.1148 54.7822 40.7107C54.8471 43.3066 53.9118 45.8281 52.1698 47.7537C50.4278 49.6793 48.0123 50.8618 45.4229 51.0564C42.8335 51.251 40.2684 50.443 38.258 48.7994L36.8207 50.2366C38.3112 51.497 40.0837 52.379 41.9879 52.8079C43.8921 53.2367 45.8717 53.1997 47.7585 52.6999C49.6453 52.2001 51.3836 51.2523 52.8258 49.937C54.268 48.6218 55.3715 46.9779 56.0425 45.1449C56.7135 43.312 56.9323 41.3442 56.6802 39.4087C56.4281 37.4732 55.7126 35.6271 54.5945 34.0272C53.4763 32.4273 51.9886 31.1209 50.2576 30.2189C48.5266 29.3169 46.6035 28.846 44.6517 28.8462Z" fill="url(#paint1_linear_2328_39)"/>
<path d="M44.6516 49.0631C46.4827 49.0661 48.2608 48.4486 49.696 47.3113C51.1311 46.174 52.1385 44.584 52.5539 42.8007C52.9694 41.0173 52.7683 39.1458 51.9835 37.4914C51.1988 35.837 49.8766 34.4973 48.2326 33.6908C46.5887 32.8843 44.72 32.6586 42.9313 33.0505C41.1426 33.4424 39.5395 34.4288 38.3834 35.8488C37.2273 37.2688 36.5865 39.0386 36.5654 40.8696C36.5443 42.7006 37.1442 44.4847 38.2672 45.931L39.7111 44.4872C38.8282 43.2459 38.4439 41.7181 38.6344 40.2067C38.8249 38.6953 39.5763 37.3107 40.7397 36.3272C41.903 35.3437 43.3934 34.8332 44.9154 34.8969C46.4374 34.9605 47.8799 35.5937 48.9571 36.6708C50.0343 37.748 50.6674 39.1906 50.7311 40.7126C50.7947 42.2346 50.2842 43.7249 49.3007 44.8883C48.3173 46.0516 46.9326 46.803 45.4213 46.9935C43.9099 47.184 42.3821 46.7997 41.1407 45.9168L39.697 47.3603C41.1122 48.4649 42.8563 49.0643 44.6516 49.0631ZM34.8884 30.7415L39.6899 20.3365C39.7796 20.1415 39.9291 19.9803 40.1167 19.8761C40.3043 19.7718 40.5202 19.7301 40.7331 19.757C46.4329 20.4688 50.5848 16.1241 52.1051 14.2226C52.2355 14.0599 52.3124 13.861 52.3255 13.6529C52.3385 13.4448 52.287 13.2378 52.178 13.0601L45.0325 1.44727L40.8206 0.60498L38.7787 1.96609L39.3152 3.57498H43.6408C43.8529 3.57496 44.0597 3.6417 44.2319 3.76575C44.404 3.8898 44.5327 4.06486 44.5998 4.26614L47.6324 13.3638C47.7075 13.5829 47.7059 13.8211 47.6278 14.0392C47.5498 14.2573 47.3999 14.4424 47.2027 14.5641C47.0092 14.6832 46.7806 14.7322 46.5553 14.7031C46.3299 14.6739 46.1214 14.5683 45.9645 14.4039C45.8818 14.3298 45.12 13.6837 43.6415 13.6837C42.2847 13.6837 41.5177 15.1377 41.5103 15.1523C41.4405 15.2987 41.3361 15.4259 41.2063 15.523C41.0764 15.6201 40.9249 15.6841 40.7648 15.7097C40.6075 15.7346 40.4464 15.7208 40.2957 15.6694C40.1449 15.618 40.009 15.5306 39.8996 15.4148C39.817 15.3406 39.0552 14.6945 37.5767 14.6945C36.2727 14.6945 34.7309 15.9412 34.2467 16.4215C34.0812 16.5858 33.864 16.688 33.6319 16.7108C33.3997 16.7336 33.1668 16.6755 32.9725 16.5464L29.94 14.5247C29.8013 14.4325 29.6876 14.3075 29.6089 14.1607C29.5302 14.0139 29.489 13.85 29.4889 13.6834V10.6509H23.4238V13.6834C23.4238 13.8498 23.3827 14.0137 23.3042 14.1604C23.2257 14.3071 23.1122 14.4322 22.9738 14.5245L19.9412 16.5462C19.7468 16.6758 19.5134 16.7341 19.2808 16.711C19.0483 16.688 18.8309 16.5851 18.6656 16.4198C18.1828 15.9409 16.641 14.6943 15.3371 14.6943C13.8587 14.6943 13.0968 15.3404 13.0141 15.4145C12.9042 15.5299 12.7679 15.6167 12.6169 15.6676C12.4659 15.7185 12.3048 15.7318 12.1475 15.7065C11.987 15.6805 11.8352 15.6159 11.7051 15.5183C11.575 15.4208 11.4704 15.2932 11.4004 15.1464C11.3958 15.1374 10.6288 13.6834 9.27197 13.6834C7.73789 13.6834 6.96143 14.391 6.95423 14.3982C6.79322 14.5593 6.58253 14.6613 6.35632 14.6877C6.1301 14.714 5.90161 14.6632 5.70787 14.5435C5.51414 14.4238 5.36651 14.2421 5.28892 14.028C5.21133 13.8139 5.20833 13.5798 5.28039 13.3638L8.31293 4.26614C8.38003 4.06486 8.50876 3.8898 8.68089 3.76575C8.85301 3.6417 9.0598 3.57496 9.27197 3.57498H13.5975L14.134 1.96609L12.0921 0.60498L7.88029 1.44727L0.734611 13.0594C0.625436 13.237 0.573763 13.4439 0.586654 13.652C0.599546 13.8601 0.676372 14.0591 0.806635 14.2218C2.32745 16.1239 6.47926 20.4683 12.1787 19.7562C12.3915 19.7295 12.6074 19.7712 12.795 19.8754C12.9825 19.9795 13.1321 20.1407 13.2219 20.3356L19.2869 33.4766C19.3484 33.6094 19.3803 33.754 19.3804 33.9004V39.9655H25.4455V36.9329H24.4347C24.1666 36.9329 23.9095 36.8264 23.7199 36.6369C23.5303 36.4473 23.4238 36.1902 23.4238 35.9221C23.4238 35.654 23.5303 35.3969 23.7199 35.2073C23.9095 35.0177 24.1666 34.9112 24.4347 34.9112H25.4455V32.8895H22.413C22.1449 32.8895 21.8878 32.783 21.6982 32.5935C21.5086 32.4039 21.4021 32.1468 21.4021 31.8787C21.4021 31.6106 21.5086 31.3535 21.6982 31.1639C21.8878 30.9743 22.1449 30.8678 22.413 30.8678H25.4455V29.857C25.4455 29.5889 25.552 29.3318 25.7416 29.1422C25.9312 28.9527 26.1883 28.8462 26.4564 28.8462C26.7245 28.8462 26.9816 28.9527 27.1712 29.1422C27.3607 29.3318 27.4672 29.5889 27.4672 29.857V30.8678H30.4998C30.7679 30.8678 31.025 30.9743 31.2145 31.1639C31.4041 31.3535 31.5106 31.6106 31.5106 31.8787C31.5106 32.1468 31.4041 32.4039 31.2145 32.5935C31.025 32.783 30.7679 32.8895 30.4998 32.8895H27.4672V34.9112H28.4781C28.7462 34.9112 29.0033 35.0177 29.1928 35.2073C29.3824 35.3969 29.4889 35.654 29.4889 35.9221C29.4889 36.1902 29.3824 36.4473 29.1928 36.6369C29.0033 36.8264 28.7462 36.9329 28.4781 36.9329H27.4672V39.9655H30.5363C30.7869 36.4559 32.3389 33.1664 34.8884 30.7415ZM24.4347 27.8353H20.7493C20.1427 27.8373 19.5497 27.6565 19.0474 27.3165C18.5452 26.9764 18.157 26.493 17.9335 25.9291L16.4202 22.1456C16.3709 22.0224 16.3463 21.8906 16.348 21.7579C16.3496 21.6251 16.3773 21.494 16.4296 21.372C16.4819 21.25 16.5577 21.1395 16.6527 21.0468C16.7478 20.954 16.8601 20.881 16.9833 20.8317C17.1066 20.7824 17.2384 20.7578 17.3711 20.7594C17.5038 20.7611 17.635 20.7888 17.757 20.8411C17.879 20.8934 17.9895 20.9692 18.0822 21.0642C18.1749 21.1592 18.248 21.2716 18.2973 21.3948L19.8101 25.1782C19.8846 25.3662 20.0141 25.5274 20.1816 25.6408C20.3492 25.7542 20.547 25.8144 20.7493 25.8136H24.4347C24.7028 25.8136 24.9599 25.9201 25.1495 26.1097C25.339 26.2993 25.4455 26.5564 25.4455 26.8245C25.4455 27.0926 25.339 27.3497 25.1495 27.5392C24.9599 27.7288 24.7028 27.8353 24.4347 27.8353ZM27.1712 22.485C27.0773 22.5789 26.9659 22.6534 26.8432 22.7042C26.7206 22.755 26.5891 22.7811 26.4564 22.7811C26.3236 22.7811 26.1922 22.755 26.0695 22.7042C25.9469 22.6534 25.8354 22.5789 25.7416 22.485L23.8359 20.5793L21.9609 19.6418C21.8411 19.583 21.7341 19.5012 21.6461 19.4009C21.5581 19.3006 21.4909 19.1839 21.4482 19.0575C21.4055 18.9311 21.3883 18.7975 21.3975 18.6644C21.4067 18.5313 21.4422 18.4014 21.5018 18.282C21.5615 18.1627 21.6442 18.0564 21.7452 17.9692C21.8461 17.882 21.9633 17.8156 22.0901 17.7739C22.2168 17.7322 22.3505 17.7161 22.4835 17.7263C22.6166 17.7365 22.7462 17.773 22.8651 17.8336L24.8868 18.8445C24.984 18.8931 25.0727 18.9571 25.1495 19.034L26.4564 20.3406L27.7633 19.0337C27.8401 18.9568 27.9288 18.8928 28.026 18.8442L30.0477 17.8334C30.1665 17.7728 30.2962 17.7363 30.4292 17.726C30.5622 17.7158 30.6959 17.732 30.8227 17.7737C30.9494 17.8154 31.0666 17.8817 31.1676 17.9689C31.2685 18.0561 31.3512 18.1625 31.4109 18.2818C31.4706 18.4011 31.506 18.5311 31.5152 18.6642C31.5245 18.7972 31.5072 18.9308 31.4645 19.0572C31.4219 19.1836 31.3546 19.3003 31.2666 19.4006C31.1786 19.5009 31.0716 19.5828 30.9519 19.6415L29.0769 20.5791L27.1712 22.485ZM32.1635 27.8353H28.4781C28.21 27.8353 27.9529 27.7288 27.7633 27.5392C27.5737 27.3497 27.4672 27.0926 27.4672 26.8245C27.4672 26.5564 27.5737 26.2993 27.7633 26.1097C27.9529 25.9201 28.21 25.8136 28.4781 25.8136H32.1635C32.3657 25.8143 32.5634 25.754 32.7308 25.6407C32.8983 25.5273 33.0277 25.3661 33.1022 25.1782L34.6154 21.3948C34.715 21.1459 34.9094 20.9467 35.1558 20.8411C35.4022 20.7355 35.6805 20.7321 35.9294 20.8317C36.1783 20.9312 36.3775 21.1256 36.4831 21.372C36.5887 21.6184 36.5921 21.8967 36.4926 22.1456L34.9792 25.9291C34.7557 26.493 34.3676 26.9764 33.8653 27.3165C33.3631 27.6565 32.77 27.8373 32.1635 27.8353ZM33.2026 53.8545L33.9164 56L35.8926 54.0238L35.1781 51.8792L33.2026 53.8545Z" fill="url(#paint2_linear_2328_39)"/>
<defs>
<linearGradient id="paint0_linear_2328_39" x1="21.7099" y1="42.1638" x2="117.04" y2="62.8856" gradientUnits="userSpaceOnUse">
<stop stop-color="#69A101"/>
<stop offset="1" stop-color="#002D3E"/>
</linearGradient>
<linearGradient id="paint1_linear_2328_39" x1="22.452" y1="37.0463" x2="145.571" y2="58.7965" gradientUnits="userSpaceOnUse">
<stop stop-color="#69A101"/>
<stop offset="1" stop-color="#002D3E"/>
</linearGradient>
<linearGradient id="paint2_linear_2328_39" x1="-21.0734" y1="19.3305" x2="244.645" y2="63.5444" gradientUnits="userSpaceOnUse">
<stop stop-color="#69A101"/>
<stop offset="1" stop-color="#002D3E"/>
</linearGradient>
</defs>
</svg>
