<svg width="48" height="49" viewBox="0 0 48 49" fill="none" xmlns="http://www.w3.org/2000/svg">
<path d="M8.53524 9.93913C8.53524 4.51096 12.9524 0 18.3806 0C20.4959 0 22.4723 0.905117 24.0065 2.5341C25.5408 0.905117 27.5173 0 29.6324 0C35.0606 0 39.4778 4.51096 39.4778 9.93913C39.4778 15.3989 35.4713 18.2173 30.8315 21.4821C28.9182 22.8281 26.9389 24.2209 24.9281 25.9653L24.0079 26.7647L23.0863 25.9666C20.8132 23.9997 18.6512 22.4601 16.7448 21.1016C12.1586 17.8369 8.53524 15.2574 8.53524 9.93913ZM19.7871 14.1586H22.6V16.9715H25.413V14.1586H28.226V11.3456H25.413V8.53265H22.6V11.3456H19.7871V14.1586ZM1.69037 12.8645C4.55968 12.8645 5.30033 26.198 5.35669 26.4793C5.64239 28.433 7.01868 31.3251 9.34293 33.0665L15.435 37.4897L17.1216 35.2372L11.0296 30.8153C8.61635 29.006 7.51648 25.9167 10.5325 25.9167C13.2337 25.9167 18.2829 29.044 19.7798 30.2846C20.6624 31.0165 21.3728 31.9341 21.8603 32.9719C22.3478 34.0098 22.6004 35.1423 22.6001 36.289V48.0079H14.1613C14.1613 46.6576 13.4299 45.1854 12.3048 43.779C11.1233 42.2318 9.43548 40.6566 7.69154 39.0532C4.37225 35.9308 0.931053 32.724 0.480888 29.4611C0.213657 27.2692 -0.00828552 23.51 0.0027771 20.1596C0.0149689 16.4075 0.332832 12.9858 1.69037 12.8645ZM28.5635 30.0237C32.5299 27.295 35.5396 25.9167 37.4805 25.9167C40.4966 25.9167 39.3967 29.006 36.9835 30.8153L30.8914 35.2372L32.5781 37.4897L38.6701 33.0665C40.9946 31.3251 42.3708 28.433 42.6566 26.4793C42.7129 26.198 43.4536 12.8645 46.3229 12.8645C47.8981 13.0052 48.0669 17.5903 47.9824 21.9785C47.9261 25.1853 47.673 28.3077 47.5324 29.4611C47.0823 32.724 43.6411 35.9309 40.3218 39.0532C38.5778 40.6566 36.8901 42.2318 35.7085 43.779C34.5834 45.1854 33.8521 46.6576 33.8521 48.0079H25.4132V36.3451C25.4131 35.1195 25.6976 33.9106 26.2443 32.8136C26.791 31.7166 27.5849 30.7616 28.5635 30.0237Z" fill="url(#paint0_linear_2341_5)"/>
<defs>
<linearGradient id="paint0_linear_2341_5" x1="67.922" y1="16.2284" x2="-175.666" y2="59.2476" gradientUnits="userSpaceOnUse">
<stop stop-color="#69A101"/>
<stop offset="1" stop-color="#002D3E"/>
</linearGradient>
</defs>
</svg>
