<svg width="48" height="48" viewBox="0 0 48 48" fill="none" xmlns="http://www.w3.org/2000/svg">
<path d="M43.7142 42.8571H26.5714C26.1168 42.8571 25.6807 43.0377 25.3592 43.3592C25.0377 43.6807 24.8571 44.1167 24.8571 44.5714H43.7142V42.8571ZM12 19.4571V36C12 36.4546 12.1806 36.8906 12.5021 37.2121C12.8236 37.5336 13.2596 37.7142 13.7143 37.7142C14.1689 37.7142 14.605 37.5336 14.9265 37.2121C15.248 36.8906 15.4286 36.4546 15.4286 36V19.4571C14.3114 19.7998 13.1172 19.7998 12 19.4571ZM43.7142 41.1428V0H26.5714C26.1168 0 25.6807 0.180612 25.3592 0.502102C25.0377 0.823593 24.8571 1.25963 24.8571 1.71428V41.6057C25.378 41.3035 25.9692 41.1439 26.5714 41.1428H43.7142ZM33.4285 36.8571H28.2857C28.0584 36.8571 27.8403 36.7668 27.6796 36.606C27.5189 36.4453 27.4285 36.2273 27.4285 36C27.4285 35.7726 27.5189 35.5546 27.6796 35.3939C27.8403 35.2331 28.0584 35.1428 28.2857 35.1428H33.4285C33.6559 35.1428 33.8739 35.2331 34.0346 35.3939C34.1954 35.5546 34.2857 35.7726 34.2857 36C34.2857 36.2273 34.1954 36.4453 34.0346 36.606C33.8739 36.7668 33.6559 36.8571 33.4285 36.8571ZM27.4285 31.7142C27.4285 31.4869 27.5189 31.2689 27.6796 31.1082C27.8403 30.9474 28.0584 30.8571 28.2857 30.8571H30C30.2273 30.8571 30.4453 30.9474 30.6061 31.1082C30.7668 31.2689 30.8571 31.4869 30.8571 31.7142C30.8571 31.9416 30.7668 32.1596 30.6061 32.3203C30.4453 32.4811 30.2273 32.5714 30 32.5714H28.2857C28.0584 32.5714 27.8403 32.4811 27.6796 32.3203C27.5189 32.1596 27.4285 31.9416 27.4285 31.7142ZM40.2857 32.5714H33.4285C33.2012 32.5714 32.9832 32.4811 32.8225 32.3203C32.6617 32.1596 32.5714 31.9416 32.5714 31.7142C32.5714 31.4869 32.6617 31.2689 32.8225 31.1082C32.9832 30.9474 33.2012 30.8571 33.4285 30.8571H40.2857C40.513 30.8571 40.731 30.9474 40.8918 31.1082C41.0525 31.2689 41.1428 31.4869 41.1428 31.7142C41.1428 31.9416 41.0525 32.1596 40.8918 32.3203C40.731 32.4811 40.513 32.5714 40.2857 32.5714ZM40.2857 28.2857H28.2857C28.0584 28.2857 27.8403 28.1954 27.6796 28.0346C27.5189 27.8739 27.4285 27.6559 27.4285 27.4285C27.4285 27.2012 27.5189 26.9832 27.6796 26.8224C27.8403 26.6617 28.0584 26.5714 28.2857 26.5714H40.2857C40.513 26.5714 40.731 26.6617 40.8918 26.8224C41.0525 26.9832 41.1428 27.2012 41.1428 27.4285C41.1428 27.6559 41.0525 27.8739 40.8918 28.0346C40.731 28.1954 40.513 28.2857 40.2857 28.2857ZM27.4285 23.1428C27.4285 22.9155 27.5189 22.6975 27.6796 22.5367C27.8403 22.376 28.0584 22.2857 28.2857 22.2857H35.1428C35.3702 22.2857 35.5882 22.376 35.7489 22.5367C35.9097 22.6975 36 22.9155 36 23.1428C36 23.3702 35.9097 23.5882 35.7489 23.7489C35.5882 23.9097 35.3702 24 35.1428 24H28.2857C28.0584 24 27.8403 23.9097 27.6796 23.7489C27.5189 23.5882 27.4285 23.3702 27.4285 23.1428ZM40.2857 24H38.5714C38.3441 24 38.126 23.9097 37.9653 23.7489C37.8046 23.5882 37.7143 23.3702 37.7143 23.1428C37.7143 22.9155 37.8046 22.6975 37.9653 22.5367C38.126 22.376 38.3441 22.2857 38.5714 22.2857H40.2857C40.513 22.2857 40.731 22.376 40.8918 22.5367C41.0525 22.6975 41.1428 22.9155 41.1428 23.1428C41.1428 23.3702 41.0525 23.5882 40.8918 23.7489C40.731 23.9097 40.513 24 40.2857 24ZM40.2857 19.7143H28.2857C28.0584 19.7143 27.8403 19.624 27.6796 19.4632C27.5189 19.3025 27.4285 19.0844 27.4285 18.8571C27.4285 18.6298 27.5189 18.4118 27.6796 18.251C27.8403 18.0903 28.0584 18 28.2857 18H40.2857C40.513 18 40.731 18.0903 40.8918 18.251C41.0525 18.4118 41.1428 18.6298 41.1428 18.8571C41.1428 19.0844 41.0525 19.3025 40.8918 19.4632C40.731 19.624 40.513 19.7143 40.2857 19.7143ZM26.8371 4.15714C26.8559 4.03905 26.8991 3.9262 26.964 3.82582C27.029 3.72544 27.1142 3.63976 27.2143 3.57428C27.3108 3.50422 27.4209 3.45507 27.5375 3.42998C27.6541 3.40489 27.7746 3.40441 27.8914 3.42857C28.3971 3.55714 32.1257 4.52571 34.3371 6.19713C36.5314 4.48285 40.4828 3.47142 40.6628 3.42857C40.7779 3.40073 40.8974 3.39703 41.014 3.41768C41.1305 3.43833 41.2415 3.4829 41.34 3.54857C41.439 3.6131 41.5237 3.69744 41.5886 3.79627C41.6535 3.8951 41.6972 4.00629 41.7171 4.12285C41.8114 4.73142 42.5742 10.1228 41.0485 12.4714C40.4216 13.4507 39.53 14.2323 38.4771 14.7257C38.3687 14.7719 38.252 14.7952 38.1343 14.7943C37.9423 14.7972 37.755 14.7356 37.6023 14.6194C37.4495 14.5032 37.3402 14.3391 37.2918 14.1534C37.2433 13.9677 37.2587 13.7711 37.3353 13.5951C37.4119 13.4191 37.5453 13.274 37.7143 13.1828C38.478 12.8268 39.1258 12.2623 39.5828 11.5543C40.44 10.2771 40.3114 7.21713 40.1142 5.37428C38.4865 5.83605 36.9356 6.53497 35.5114 7.44856C35.9287 8.07471 36.2359 8.76753 36.42 9.49713L37.0628 8.82856C37.222 8.66488 37.4396 8.57113 37.6678 8.56791C37.8961 8.5647 38.1163 8.65229 38.28 8.81142C38.4436 8.97055 38.5374 9.18818 38.5406 9.41644C38.5438 9.6447 38.4562 9.86488 38.2971 10.0286L36.5142 11.8543V11.94C36.327 12.9156 35.8131 13.7984 35.0571 14.4428C35.0571 14.4428 35.0571 14.4943 34.9971 14.5114C34.9723 14.5322 34.9429 14.5469 34.9114 14.5543C34.8411 14.6217 34.7667 14.6846 34.6885 14.7428C33.995 15.1931 33.184 15.4287 32.3571 15.42C31.3938 15.3852 30.4535 15.1166 29.6172 14.6372C28.781 14.1579 28.0739 13.4822 27.5571 12.6686C25.9628 10.2857 26.7428 4.77428 26.8371 4.15714Z" fill="url(#paint0_linear_2328_33)"/>
<path d="M33.197 13.5858L31.037 10.8086C30.9146 10.628 30.8656 10.4076 30.9001 10.1921C30.9346 9.97667 31.0499 9.78249 31.2226 9.64915C31.3953 9.5158 31.6124 9.45333 31.8295 9.47447C32.0467 9.49561 32.2476 9.59876 32.3913 9.7629L34.5256 12.4972C34.6765 12.2294 34.7863 11.9405 34.8513 11.64C35.0387 10.5067 34.7707 9.34522 34.1056 8.40862C33.2913 7.20005 30.497 6.03434 28.4142 5.40862C28.2256 7.29433 28.1228 10.44 28.997 11.7515C30.0599 13.2943 31.8256 14.04 33.197 13.5858ZM13.7142 4.28577C10.9971 4.28577 8.57135 8.57148 8.57135 12C8.57135 15.4286 10.8771 18 13.7142 18C16.5513 18 18.8571 15.3086 18.8571 12C18.8571 8.69147 16.4313 4.28577 13.7142 4.28577ZM21.4285 42.8571H4.28564V44.5714H23.1428C23.1428 44.1168 22.9622 43.6807 22.6407 43.3592C22.3192 43.0378 21.8831 42.8571 21.4285 42.8571Z" fill="url(#paint1_linear_2328_33)"/>
<path d="M23.1428 41.6057V1.71428C23.1428 1.25963 22.9622 0.823593 22.6407 0.502102C22.3192 0.180612 21.8831 0 21.4285 0L4.28564 0V41.1428H21.4285C22.0306 41.1439 22.6219 41.3035 23.1428 41.6057ZM17.1428 18.6685V36C17.1428 36.9093 16.7815 37.7813 16.1386 38.4243C15.4956 39.0673 14.6235 39.4285 13.7142 39.4285C12.8049 39.4285 11.9328 39.0673 11.2898 38.4243C10.6469 37.7813 10.2856 36.9093 10.2856 36V18.6685C9.20776 17.9267 8.33047 16.9294 7.73217 15.7657C7.13388 14.602 6.83322 13.3082 6.85707 12C6.85707 7.71428 9.91707 2.57143 13.7142 2.57143C17.5113 2.57143 20.5713 7.71428 20.5713 12C20.5952 13.3082 20.2945 14.602 19.6962 15.7657C19.0979 16.9294 18.2206 17.9267 17.1428 18.6685Z" fill="url(#paint2_linear_2328_33)"/>
<path d="M47.1428 6.85718H45.4285V44.5714C45.4285 45.0261 45.2479 45.4621 44.9264 45.7836C44.6049 46.1051 44.1689 46.2857 43.7142 46.2857H4.28571C3.83105 46.2857 3.39502 46.1051 3.07353 45.7836C2.75204 45.4621 2.57142 45.0261 2.57142 44.5714V6.85718H0.857142C0.629814 6.85718 0.411796 6.94748 0.251051 7.10823C0.0903058 7.26897 0 7.48699 0 7.71432L0 47.1428C0 47.3702 0.0903058 47.5882 0.251051 47.7489C0.411796 47.9097 0.629814 48 0.857142 48H47.1428C47.3701 48 47.5881 47.9097 47.7489 47.7489C47.9096 47.5882 47.9999 47.3702 47.9999 47.1428V7.71432C47.9999 7.48699 47.9096 7.26897 47.7489 7.10823C47.5881 6.94748 47.3701 6.85718 47.1428 6.85718Z" fill="url(#paint3_linear_2328_33)"/>
<defs>
<linearGradient id="paint0_linear_2328_33" x1="-1.16336" y1="15.0667" x2="162.225" y2="35.6029" gradientUnits="userSpaceOnUse">
<stop stop-color="#69A101"/>
<stop offset="1" stop-color="#002D3E"/>
</linearGradient>
<linearGradient id="paint1_linear_2328_33" x1="-8.42521" y1="17.9038" x2="149.001" y2="39.0429" gradientUnits="userSpaceOnUse">
<stop stop-color="#69A101"/>
<stop offset="1" stop-color="#002D3E"/>
</linearGradient>
<linearGradient id="paint2_linear_2328_33" x1="-3.54122" y1="14.0642" x2="94.515" y2="21.9147" gradientUnits="userSpaceOnUse">
<stop stop-color="#69A101"/>
<stop offset="1" stop-color="#002D3E"/>
</linearGradient>
<linearGradient id="paint3_linear_2328_33" x1="-19.9229" y1="20.7649" x2="221.041" y2="70.4239" gradientUnits="userSpaceOnUse">
<stop stop-color="#69A101"/>
<stop offset="1" stop-color="#002D3E"/>
</linearGradient>
</defs>
</svg>
