<svg width="56" height="34" viewBox="0 0 56 34" fill="none" xmlns="http://www.w3.org/2000/svg">
<path d="M8.37898 7.44116C9.0197 8.08188 10.0584 8.08188 10.6992 7.44116L15.3396 2.80071C15.9803 2.15999 15.9803 1.12126 15.3396 0.480539C14.6989 -0.16018 13.6602 -0.16018 13.0194 0.480539L9.53912 3.96085L8.37909 2.80082C7.73837 2.1601 6.69964 2.1601 6.05892 2.80071C5.4182 3.44132 5.4182 4.48016 6.05881 5.12088L8.37898 7.44116ZM40.7935 7.44116C41.4342 8.08188 42.4729 8.08188 43.1136 7.44116L47.7541 2.80071C48.3948 2.15999 48.3948 1.12126 47.7541 0.480539C47.1134 -0.16018 46.0746 -0.16018 45.4339 0.480539L41.9536 3.96085L40.7935 2.80071C40.1527 2.15999 39.114 2.15999 38.4733 2.80071C37.8326 3.44132 37.8326 4.48016 38.4733 5.12088L40.7935 7.44116ZM24.5863 7.44116C25.227 8.08188 26.2657 8.08188 26.9065 7.44116L31.5468 2.80071C32.1874 2.15999 32.1874 1.12126 31.5468 0.480539C30.9061 -0.16018 29.8673 -0.16018 29.2266 0.480539L25.7464 3.96074L24.5863 2.8006C23.9456 2.15988 22.9068 2.15988 22.2661 2.8006C21.6254 3.44121 21.6254 4.48005 22.2661 5.12077L24.5863 7.44116ZM30.6182 13.1251H15.8938L21.8445 22.6461C22.0074 22.9069 22.0938 23.2082 22.0938 23.5157C22.0938 23.8232 22.0074 24.1245 21.8445 24.3852L15.8938 33.9063H30.6182L37.1123 23.5157L30.6182 13.1251Z" fill="url(#paint0_linear_2341_23)"/>
<path d="M12.0242 13.125H1.64062C0.734562 13.125 0 13.8596 0 14.7656V32.2656C0 33.1717 0.734562 33.9062 1.64062 33.9062H12.0242L18.5184 23.5156L12.0242 13.125ZM55.7506 22.6461L50.2819 13.8961C50.1344 13.6601 49.9293 13.4656 49.6859 13.3307C49.4426 13.1958 49.1689 13.125 48.8906 13.125H34.4874L40.438 22.6461C40.601 22.9068 40.6874 23.2081 40.6874 23.5156C40.6874 23.8231 40.601 24.1244 40.438 24.3852L34.4874 33.9062H48.8906C49.1689 33.9062 49.4426 33.8355 49.6859 33.7006C49.9293 33.5657 50.1344 33.3711 50.2819 33.1352L55.7506 24.3852C55.9136 24.1244 56 23.8231 56 23.5156C56 23.2081 55.9136 22.9068 55.7506 22.6461Z" fill="url(#paint1_linear_2341_23)"/>
<defs>
<linearGradient id="paint0_linear_2341_23" x1="-12.1266" y1="11.4615" x2="200.6" y2="58.7358" gradientUnits="userSpaceOnUse">
<stop stop-color="#69A101"/>
<stop offset="1" stop-color="#002D3E"/>
</linearGradient>
<linearGradient id="paint1_linear_2341_23" x1="-23.2434" y1="20.1498" x2="215.683" y2="133.881" gradientUnits="userSpaceOnUse">
<stop stop-color="#69A101"/>
<stop offset="1" stop-color="#002D3E"/>
</linearGradient>
</defs>
</svg>
