<svg width="370" height="91" viewBox="0 0 370 91" fill="none" xmlns="http://www.w3.org/2000/svg">
<path d="M54.9496 31.8765C54.8403 29.3067 53.7741 26.983 52.0791 25.288C50.3021 23.511 47.8417 22.3901 45.1079 22.3901C42.4014 22.3901 39.9408 23.511 38.1639 25.288C36.3869 27.065 35.2661 29.5254 35.2661 32.2592C35.2661 34.9657 36.3869 37.4261 38.1639 39.2031C39.9408 40.9801 42.4014 42.0737 45.1079 42.101C47.8143 42.101 50.3021 40.9801 52.0791 39.2031C53.7741 37.5082 54.8403 35.1844 54.9496 32.6146H54.9768V32.2592L55.0041 31.8765H54.9496ZM49.6731 32.2592C49.6731 33.5168 49.1812 34.6376 48.3337 35.4851C47.4862 36.3052 46.3654 36.8247 45.1079 36.8247C43.8503 36.8247 42.7292 36.3326 41.8817 35.4851C41.0616 34.6376 40.5423 33.5168 40.5423 32.2592C40.5423 31.0017 41.0343 29.8808 41.8817 29.0333C42.7292 28.2132 43.8503 27.6937 45.1079 27.6937C46.3654 27.6937 47.4862 28.1858 48.3337 29.0333C49.1812 29.8535 49.6731 30.9744 49.6731 32.2592Z" fill="white"/>
<path d="M90.1885 45.0806L90.216 44.6979H90.1613C90.0519 32.3958 85.0491 21.2691 76.957 13.2043C68.8102 5.05751 57.5194 0 45.0805 0C32.6416 0 21.3511 5.05751 13.2043 13.2043C5.05751 21.3511 0 32.6418 0 45.0806C0 57.5195 5.05751 68.8102 13.2043 76.957C21.3511 85.1038 32.6417 90.1613 45.0533 90.1613C57.4922 90.1613 68.7827 85.1038 76.9295 76.957C84.9943 68.8922 90.0244 57.7382 90.1338 45.4634V45.0806H90.1885ZM47.0761 84.803V76.6016V76.1642C47.0761 76.0821 47.0761 75.9728 47.0761 75.8635V75.6448C47.0215 73.7037 46.9397 71.7901 46.885 69.8491C46.885 69.521 46.885 69.2203 46.885 68.9195C46.885 68.0721 46.9121 67.3339 46.9395 66.7598C47.0761 63.862 47.4044 61.9483 47.6504 60.8821C47.7051 60.6361 47.7597 60.4174 47.8143 60.1713V60.144L47.8418 60.0073C47.8965 59.7886 47.9785 59.5426 48.0605 59.3239C48.908 56.6721 50.3295 53.9655 52.6532 51.4231C55.4144 48.4432 58.5037 46.6936 61.5109 45.6548C64.5181 44.6433 67.4433 44.3425 69.6577 44.3425C70.5598 44.3425 71.3526 44.3972 71.9814 44.4519C72.1728 45.5454 72.364 47.131 72.364 48.99C72.364 51.2044 72.0907 53.7742 71.2432 56.426C70.3957 59.0778 68.9742 61.7843 66.6505 64.2994C63.8893 67.2793 60.8 69.0289 57.7928 70.0677C57.4374 70.1771 57.0821 70.2865 56.7267 70.3958C57.2735 67.9627 58.2028 65.2016 59.7884 62.3311C62.6589 57.1642 66.3771 53.9929 68.5641 52.4073L68.8647 52.1886L68.6461 51.8878L65.7483 47.8965L65.4475 48.1152C62.8777 50.0015 58.531 53.6922 55.1684 59.7612C52.7626 64.1354 51.6417 68.2908 51.0949 71.5987V71.6261V71.6534C51.0949 71.6807 51.0949 71.708 51.0949 71.7354C50.8762 73.157 50.7943 74.1958 50.7943 74.9886C50.7943 75.5627 50.931 76.6836 50.931 76.6836L51.3136 76.6563C52.0517 76.6289 52.8173 76.5469 53.6101 76.4649C54.2935 76.3829 54.9769 76.2735 55.6877 76.1369L55.9886 76.0821C57.1368 75.8634 58.3121 75.5627 59.515 75.1253C63.233 73.8677 67.1697 71.6534 70.587 67.9354C73.4848 64.7915 75.2892 61.3742 76.328 58.0937C77.3942 54.8131 77.7224 51.6965 77.7224 49.0447C77.7224 46.9396 77.5036 45.1353 77.2848 43.7958C77.1755 43.1396 77.0664 42.5928 76.957 42.1828C76.8476 41.7727 76.7928 41.4993 76.7381 41.3626L76.3008 39.859L74.7424 39.531C74.6331 39.5036 74.4417 39.4763 74.1957 39.4217C73.3755 39.285 71.7899 39.0936 69.6849 39.0936C67.0331 39.0936 63.5338 39.4216 59.8431 40.6792C56.1251 41.9367 52.1884 44.1511 48.7712 47.8691C47.3222 49.4274 46.1467 51.0677 45.2172 52.7353C45.1899 52.7627 45.1898 52.79 45.1625 52.8447L44.8346 53.4735C44.3425 54.3756 43.9323 55.3051 43.5769 56.2073C43.3855 56.7267 43.1942 57.2188 43.0301 57.7382C42.7841 58.449 42.5927 59.1598 42.4287 59.8706L42.4014 59.9526C42.0187 61.6202 41.8 63.2332 41.718 64.7368C39.7223 61.8663 37.2344 58.8591 34.0905 55.9339C30.3999 52.5166 26.7094 50.0836 23.5928 48.3886L23.2647 48.1972L20.7223 52.8447L21.0504 53.0361C23.8389 54.567 27.1741 56.7541 30.5093 59.8433C34.7194 63.7253 37.6446 67.8534 39.6676 71.4073C39.0115 71.38 38.3006 71.3253 37.5625 71.2433C35.9769 71.0519 34.2546 70.7239 32.5049 70.1225C29.4977 69.0836 26.4087 67.3613 23.6475 64.3541C21.3238 61.8116 19.902 59.1051 19.0545 56.4807C18.207 53.8289 17.9337 51.2591 17.9337 49.0447C17.9337 47.295 18.0977 45.7641 18.2891 44.6706C18.2891 44.6159 18.3166 44.5612 18.3166 44.4792C18.9454 44.4245 19.7382 44.3698 20.6403 44.3698C22.8821 44.3698 25.7799 44.6432 28.7871 45.6821C31.7943 46.7209 34.8833 48.4433 37.6445 51.4505C38.4373 52.2979 39.1207 53.1727 39.6948 54.0749L40.0777 54.649L40.3511 54.0202C40.6518 53.3094 41.0072 52.5986 41.3626 51.8878C41.4993 51.6418 41.6359 51.3684 41.7999 51.095C42.0733 50.603 42.3741 50.1109 42.6748 49.6188L42.8115 49.4001L42.6476 49.1814C42.2922 48.744 41.9093 48.3065 41.5266 47.8691C39.8042 46.0101 37.9726 44.5339 36.1136 43.3583C34.2273 42.1828 32.3137 41.3079 30.4821 40.6792C26.7641 39.4216 23.2921 39.0936 20.6403 39.0936C19.2461 39.0936 18.0704 39.1756 17.1956 39.285C16.7582 39.3396 16.4029 39.3943 16.1295 39.4217C15.8561 39.4763 15.6921 39.5036 15.5828 39.531L14.0244 39.859L13.5869 41.3626C13.5595 41.4993 13.4776 41.7727 13.3682 42.1828C13.0948 43.413 12.6028 45.8735 12.6028 49.0447C12.6028 51.6965 12.9307 54.8131 13.9969 58.0937C15.0358 61.3742 16.8401 64.7915 19.738 67.9354C23.1552 71.6534 27.0919 73.8677 30.8099 75.1253C33.5164 76.0548 36.1137 76.4649 38.3554 76.6289C39.1756 76.6836 39.9409 76.7109 40.6517 76.7109H40.7339H40.9798C41.2805 76.7109 41.5539 76.6836 41.8547 76.6836V84.721C32.2043 83.9282 23.5107 79.6908 17.0589 73.2116C9.86893 65.9943 5.41291 56.0706 5.41291 45.0806C5.41291 34.0907 9.86893 24.167 17.0589 16.9497C24.2762 9.75973 34.2 5.30358 45.19 5.30358C56.1799 5.30358 66.1035 9.75973 73.3208 16.9497C80.5107 24.167 84.967 34.0907 84.967 45.0806C84.967 56.0706 80.5107 65.9943 73.3208 73.2116C66.4589 79.9641 57.3006 84.311 47.0761 84.803Z" fill="white"/>
<path d="M68.9466 21.2417C62.8502 15.1453 54.4302 11.3726 45.1352 11.3726H45.1079H45.0804C35.7855 11.3726 27.3654 15.1453 21.269 21.2417C17.551 24.9597 14.7077 29.5251 13.04 34.6374L12.8489 35.2388L14.4892 34.9108C14.7079 34.8561 14.9264 34.8287 15.2818 34.7741H15.3365C15.6373 34.7194 16.0473 34.6647 16.5668 34.61C17.2229 34.528 17.8789 34.4734 18.5077 34.446H18.7538L18.8358 34.2273C20.2847 30.7554 22.3897 27.6388 24.9869 25.0144C30.1265 19.8748 37.207 16.7035 45.0804 16.7035C52.9265 16.7035 60.0071 19.8748 65.174 25.0144C67.7985 27.6388 69.9035 30.7554 71.3251 34.2273L71.4071 34.446H71.6532C72.9928 34.528 74.0864 34.6647 74.8518 34.7741H74.9066C75.2346 34.8287 75.4806 34.8834 75.6173 34.9108L76.6835 35.1295L77.3123 35.2662L77.1208 34.6374C75.5079 29.5251 72.6646 24.9597 68.9466 21.2417Z" fill="white"/>
<path d="M110.637 71.626V26.518C110.637 26.272 110.856 26.0532 111.102 26.0532H122.721C122.967 26.0532 123.186 26.272 123.186 26.518V43.495C123.186 43.741 123.405 43.9597 123.651 43.9597H139.452C139.698 43.9597 139.917 43.741 139.917 43.495V26.518C139.917 26.272 140.136 26.0532 140.382 26.0532H152.028C152.274 26.0532 152.492 26.272 152.492 26.518V71.626C152.492 71.8721 152.274 72.0908 152.028 72.0908H140.382C140.136 72.0908 139.917 71.8721 139.917 71.626V53.8288C139.917 53.5828 139.698 53.3641 139.452 53.3641H123.651C123.405 53.3641 123.186 53.5828 123.186 53.8288V71.6533C123.186 71.8994 122.967 72.1181 122.721 72.1181H111.102C110.856 72.0907 110.637 71.8994 110.637 71.626Z" fill="white"/>
<path d="M170.7 58.4492C170.508 58.6406 170.426 58.7499 170.235 58.9413C170.317 61.1557 170.946 62.878 172.121 64.1355C173.352 65.4751 175.101 66.1312 177.37 66.1312C179.065 66.1312 180.487 65.8032 181.663 65.1744C182.701 64.6003 183.522 63.7801 184.123 62.6866C184.232 62.4952 184.478 62.3859 184.697 62.4953L192.297 65.5571C192.543 65.6665 192.653 65.9399 192.543 66.1859C191.504 68.4003 189.782 70.1227 187.404 71.3529C184.834 72.6651 181.717 73.3212 177.999 73.3212C172.477 73.3212 168.021 71.7903 164.685 68.7284C161.35 65.6665 159.683 61.6205 159.683 56.5902C159.683 51.642 161.35 47.5413 164.685 44.2607C168.021 40.9801 172.258 39.3672 177.37 39.3672C182.619 39.3672 186.775 41.0348 189.809 44.3427C192.762 47.5686 194.293 52.4622 194.375 58.0118C194.375 58.2579 194.156 58.4766 193.91 58.4766L170.7 58.4492ZM182.811 52.1341C183.111 52.1341 183.33 51.8607 183.275 51.5873C183.002 50.0291 182.346 48.7715 181.307 47.7873C180.131 46.6938 178.71 46.147 177.015 46.147C175.183 46.147 173.734 46.6391 172.668 47.6506C171.684 48.5528 171.001 49.865 170.618 51.56C170.563 51.8607 170.782 52.1341 171.083 52.1341H182.811Z" fill="white"/>
<path d="M234.835 40.8161V71.6536C234.835 71.8996 234.616 72.1183 234.37 72.1183H225.02C224.774 72.1183 224.556 71.8996 224.556 71.6536V68.373C224.556 67.9356 224.009 67.7442 223.736 68.0996C222.478 69.7126 221.111 70.9428 219.608 71.7903C217.776 72.8291 215.616 73.3212 213.156 73.3212C208.918 73.3212 205.528 71.763 203.013 68.6737C200.471 65.5845 199.213 61.4291 199.213 56.2349C199.213 51.0679 200.525 46.9398 203.177 43.9053C205.829 40.8434 209.41 39.3398 213.894 39.3398C216.272 39.3398 218.35 39.8593 220.072 40.8708C221.439 41.6636 222.642 42.8118 223.681 44.2881C223.927 44.6435 224.501 44.4521 224.501 44.0147V40.8161C224.501 40.57 224.72 40.3513 224.966 40.3513H234.397C234.643 40.3513 234.835 40.5427 234.835 40.8161ZM224.993 56.1802C224.993 53.7198 224.337 51.7514 223.025 50.3025C221.713 48.8536 219.908 48.1427 217.612 48.1427C215.316 48.1427 213.539 48.8536 212.226 50.3025C210.914 51.7514 210.258 53.6924 210.258 56.2075C210.258 58.6679 210.914 60.6363 212.226 62.0579C213.539 63.4795 215.343 64.1902 217.612 64.1902C219.908 64.1902 221.685 63.4795 223.025 62.0579C224.337 60.609 224.993 58.668 224.993 56.1802Z" fill="white"/>
<path d="M243.611 71.626V23.8114C243.611 23.5654 243.829 23.3467 244.075 23.3467H254.382C254.628 23.3467 254.846 23.5654 254.846 23.8114V71.626C254.846 71.872 254.628 72.0907 254.382 72.0907H244.075C243.829 72.0907 243.611 71.8993 243.611 71.626Z" fill="white"/>
<path d="M265.098 71.626V48.7166C265.098 48.4706 264.88 48.2519 264.634 48.2519H260.806C260.56 48.2519 260.342 48.0331 260.342 47.7871V40.7885C260.342 40.5425 260.56 40.3238 260.806 40.3238H264.634C264.88 40.3238 265.098 40.105 265.098 39.859V31.3022C265.098 31.0562 265.317 30.8374 265.563 30.8374H275.678C275.924 30.8374 276.143 31.0562 276.143 31.3022V39.859C276.143 40.105 276.362 40.3238 276.608 40.3238H280.435C280.681 40.3238 280.9 40.5425 280.9 40.7885V47.7871C280.9 48.0331 280.681 48.2519 280.435 48.2519H276.608C276.362 48.2519 276.143 48.4706 276.143 48.7166V71.626C276.143 71.8721 275.924 72.0908 275.678 72.0908H265.563C265.317 72.0908 265.098 71.8994 265.098 71.626Z" fill="white"/>
<path d="M286.122 71.626V23.8114C286.122 23.5654 286.34 23.3467 286.586 23.3467H296.674C296.92 23.3467 297.139 23.5654 297.139 23.8114V40.4604C297.139 41.5813 297.112 42.6475 297.057 43.6043C297.03 43.8503 297.029 44.069 297.002 44.3151C296.975 44.7798 297.549 44.9985 297.822 44.6158C298.97 43.0575 300.283 41.8273 301.732 40.9798C303.645 39.8589 305.914 39.3122 308.566 39.3122C310.616 39.3122 312.448 39.6402 314.061 40.2964C315.674 40.9525 316.959 41.9093 317.971 43.1395C318.818 44.2057 319.419 45.5179 319.775 47.0489C320.13 48.5798 320.322 50.8763 320.322 53.9108V71.626C320.322 71.872 320.103 72.0907 319.857 72.0907H309.55C309.304 72.0907 309.086 71.872 309.086 71.626V55.0863C309.086 52.5439 308.676 50.7122 307.855 49.564C307.035 48.4158 305.696 47.8417 303.891 47.8417C301.568 47.8417 299.873 48.6892 298.807 50.4115C297.74 52.1338 297.194 54.9223 297.194 58.777V71.6533C297.194 71.8993 296.975 72.118 296.729 72.118H286.641C286.313 72.0906 286.122 71.8993 286.122 71.626Z" fill="white"/>
<path d="M354.248 47.9239L354.85 48.826C354.959 48.9901 354.959 49.1815 354.85 49.3455L354.248 50.2476L353.92 50.7397L349.983 56.6174L347.796 59.8707L347.66 60.0893L345.582 63.2059L339.814 71.8448C339.732 71.9815 339.595 72.0362 339.431 72.0362H325.625C325.27 72.0362 325.051 71.6261 325.242 71.3254L338.173 52.3527L339.923 49.8102L340.442 49.0447L342.493 46.0375L347.441 38.7929C347.632 38.5195 348.015 38.5195 348.206 38.7929L350.011 41.4994L353.947 47.3771L354.248 47.9239Z" fill="white"/>
<path d="M369.913 26.7914L357.665 45.1626C357.474 45.436 357.091 45.436 356.9 45.1626L350.257 35.2115C350.147 35.0475 350.147 34.8561 350.257 34.6921L355.998 26.2719C356.08 26.1352 356.216 26.0806 356.38 26.0806H369.53C369.913 26.0806 370.104 26.4907 369.913 26.7914Z" fill="white"/>
<path d="M369.53 72.0912H356.381C356.217 72.0912 356.08 72.0092 355.998 71.8999L347.824 59.8984L346.867 58.5042L342.493 52.107L340.443 49.0998L339.923 48.3343L325.242 26.8192C325.024 26.5184 325.242 26.1084 325.625 26.1084H339.431C339.595 26.1084 339.732 26.1904 339.814 26.2998L347.687 38.0825L347.824 38.3012L350.011 41.5545L353.947 47.4322L354.276 47.9242L355.041 49.0725L369.913 71.3804C370.132 71.6811 369.913 72.0912 369.53 72.0912Z" fill="white"/>
<path d="M306.352 19.7932C301.404 23.9486 301.677 30.0177 301.841 31.4392C301.868 31.6306 301.978 31.7673 302.169 31.822C303.563 32.232 309.468 33.599 314.444 29.4435C319.392 25.2881 319.119 19.219 318.955 17.7975C318.927 17.6061 318.818 17.4694 318.627 17.4147C317.233 17.0047 311.327 15.6377 306.352 19.7932Z" fill="white"/>
</svg>
