<svg width="189" height="46" viewBox="0 0 189 46" fill="none" xmlns="http://www.w3.org/2000/svg">
<path d="M28.0352 16.2632C27.9794 14.9521 27.4354 13.7665 26.5707 12.9018C25.6641 11.9952 24.4088 11.4233 23.014 11.4233C21.6331 11.4233 20.3778 11.9952 19.4712 12.9018C18.5645 13.8084 17.9927 15.0637 17.9927 16.4585C17.9927 17.8393 18.5645 19.0946 19.4712 20.0012C20.3778 20.9078 21.6331 21.4657 23.014 21.4797C24.3948 21.4797 25.6641 20.9078 26.5707 20.0012C27.4354 19.1364 27.9794 17.9509 28.0352 16.6398H28.0491V16.4585L28.063 16.2632H28.0352ZM25.3431 16.4585C25.3431 17.1001 25.0922 17.6719 24.6598 18.1043C24.2274 18.5227 23.6556 18.7878 23.014 18.7878C22.3724 18.7878 21.8004 18.5367 21.368 18.1043C20.9496 17.6719 20.6846 17.1001 20.6846 16.4585C20.6846 15.8169 20.9356 15.245 21.368 14.8126C21.8004 14.3942 22.3724 14.1291 23.014 14.1291C23.6556 14.1291 24.2274 14.3802 24.6598 14.8126C25.0922 15.2311 25.3431 15.8029 25.3431 16.4585Z" fill="url(#paint0_linear_2_247)"/>
<path d="M46.0139 23L46.0279 22.8047H46C45.9442 16.5282 43.3918 10.8514 39.2632 6.73679C35.1068 2.58033 29.3462 0 22.9999 0C16.6537 0 10.8932 2.58033 6.73679 6.73679C2.58033 10.8932 0 16.6537 0 23C0 29.3463 2.58033 35.1068 6.73679 39.2632C10.8932 43.4197 16.6537 46 22.986 46C29.3323 46 35.0927 43.4197 39.2492 39.2632C43.3638 35.1486 45.9302 29.4578 45.986 23.1953V23H46.0139ZM24.0181 43.2662V39.0819V38.8587C24.0181 38.8169 24.0181 38.7611 24.0181 38.7053V38.5937C23.9902 37.6034 23.9485 36.6271 23.9206 35.6368C23.9206 35.4694 23.9206 35.3159 23.9206 35.1625C23.9206 34.7301 23.9344 34.3536 23.9484 34.0607C24.0181 32.5822 24.1856 31.6058 24.3111 31.0619C24.339 30.9363 24.3668 30.8247 24.3947 30.6992V30.6853L24.4087 30.6155C24.4366 30.504 24.4785 30.3784 24.5203 30.2668C24.9527 28.9139 25.6779 27.533 26.8635 26.2359C28.2722 24.7156 29.8484 23.8229 31.3827 23.2929C32.9169 22.7768 34.4093 22.6234 35.5391 22.6234C35.9994 22.6234 36.4039 22.6513 36.7247 22.6792C36.8223 23.2371 36.9199 24.0461 36.9199 24.9945C36.9199 26.1243 36.7804 27.4354 36.3481 28.7884C35.9157 30.1413 35.1904 31.5221 34.0048 32.8053C32.5961 34.3257 31.0199 35.2183 29.4857 35.7483C29.3044 35.8041 29.1231 35.8599 28.9418 35.9157C29.2208 34.6744 29.6949 33.2656 30.5038 31.8011C31.9684 29.165 33.8654 27.547 34.9812 26.738L35.1346 26.6264L35.023 26.473L33.5446 24.4366L33.3911 24.5482C32.08 25.5106 29.8623 27.3936 28.1467 30.49C26.9193 32.7216 26.3474 34.8417 26.0685 36.5294V36.5434V36.5573C26.0685 36.5713 26.0685 36.5852 26.0685 36.5992C25.9569 37.3244 25.9151 37.8545 25.9151 38.2589C25.9151 38.5518 25.9848 39.1237 25.9848 39.1237L26.18 39.1098C26.5566 39.0958 26.9472 39.054 27.3517 39.0121C27.7004 38.9703 28.049 38.9145 28.4117 38.8448L28.5652 38.8169C29.151 38.7053 29.7507 38.5518 30.3644 38.3287C32.2613 37.6871 34.2698 36.5573 36.0133 34.6604C37.4917 33.0564 38.4123 31.3129 38.9423 29.6392C39.4863 27.9654 39.6537 26.3754 39.6537 25.0224C39.6537 23.9485 39.5421 23.0279 39.4305 22.3445C39.3747 22.0097 39.319 21.7307 39.2632 21.5215C39.2074 21.3123 39.1794 21.1728 39.1515 21.1031L38.9284 20.3359L38.1334 20.1686C38.0776 20.1546 37.9799 20.1407 37.8544 20.1128C37.436 20.0431 36.627 19.9454 35.553 19.9454C34.2001 19.9454 32.4147 20.1128 30.5318 20.7544C28.6349 21.396 26.6264 22.5258 24.8829 24.4227C24.1437 25.2177 23.5439 26.0546 23.0697 26.9054C23.0557 26.9193 23.0557 26.9333 23.0417 26.9612L22.8745 27.282C22.6234 27.7423 22.4141 28.2165 22.2328 28.6768C22.1352 28.9418 22.0375 29.1929 21.9538 29.4579C21.8283 29.8205 21.7306 30.1832 21.647 30.5458L21.6331 30.5876C21.4378 31.4384 21.3262 32.2614 21.2844 33.0285C20.2662 31.564 18.9969 30.0297 17.3929 28.5373C15.5099 26.7938 13.627 25.5525 12.037 24.6877L11.8696 24.59L10.5724 26.9612L10.7398 27.0588C12.1625 27.8399 13.8641 28.9557 15.5658 30.5318C17.7137 32.5124 19.2061 34.6186 20.2383 36.4318C19.9035 36.4178 19.5409 36.3899 19.1643 36.3481C18.3553 36.2505 17.4766 36.0831 16.5839 35.7762C15.0497 35.2462 13.4736 34.3675 12.0649 32.8332C10.8793 31.5361 10.1539 30.1552 9.72155 28.8162C9.28916 27.4633 9.14974 26.1522 9.14974 25.0224C9.14974 24.1298 9.2334 23.3487 9.33103 22.7908C9.33103 22.7629 9.34506 22.735 9.34506 22.6932C9.66586 22.6653 10.0704 22.6373 10.5306 22.6373C11.6744 22.6373 13.1528 22.7768 14.6871 23.3068C16.2213 23.8369 17.7974 24.7156 19.2061 26.2499C19.6106 26.6822 19.9593 27.1286 20.2522 27.5888L20.4475 27.8817L20.587 27.5609C20.7404 27.1983 20.9218 26.8356 21.1031 26.473C21.1728 26.3475 21.2425 26.208 21.3262 26.0685C21.4657 25.8175 21.6191 25.5664 21.7725 25.3154L21.8423 25.2038L21.7587 25.0922C21.5773 24.869 21.382 24.6458 21.1867 24.4227C20.308 23.4742 19.3735 22.721 18.4251 22.1213C17.4627 21.5215 16.4864 21.0752 15.5519 20.7544C13.655 20.1128 11.8836 19.9454 10.5306 19.9454C9.81929 19.9454 9.21945 19.9873 8.77312 20.0431C8.54995 20.071 8.36871 20.0989 8.22923 20.1128C8.08976 20.1407 8.00607 20.1546 7.95028 20.1686L7.15522 20.3359L6.93197 21.1031C6.91803 21.1728 6.87621 21.3123 6.82042 21.5215C6.68094 22.1492 6.42991 23.4045 6.42991 25.0224C6.42991 26.3754 6.59723 27.9654 7.14119 29.6392C7.67121 31.3129 8.59177 33.0564 10.0702 34.6604C11.8137 36.5573 13.8222 37.6871 15.7191 38.3287C17.1 38.8029 18.4251 39.0121 19.5688 39.0958C19.9872 39.1237 20.3777 39.1377 20.7404 39.1377H20.7823H20.9078C21.0612 39.1377 21.2007 39.1237 21.3541 39.1237V43.2244C16.4305 42.8199 11.9951 40.658 8.70338 37.3523C5.03509 33.6701 2.76165 28.607 2.76165 23C2.76165 17.393 5.03509 12.3299 8.70338 8.64767C12.3856 4.97938 17.4487 2.70587 23.0558 2.70587C28.6628 2.70587 33.7258 4.97938 37.408 8.64767C41.0763 12.3299 43.3499 17.393 43.3499 23C43.3499 28.607 41.0763 33.6701 37.408 37.3523C33.9071 40.7974 29.2346 43.0152 24.0181 43.2662Z" fill="url(#paint1_linear_2_247)"/>
<path d="M35.1764 10.8375C32.066 7.72711 27.7701 5.80229 23.0278 5.80229H23.014H22.9999C18.2576 5.80229 13.9618 7.72711 10.8514 10.8375C8.95448 12.7344 7.50383 15.0637 6.65301 17.6719L6.55548 17.9788L7.39235 17.8114C7.50394 17.7835 7.61544 17.7696 7.79676 17.7417H7.82468C7.97811 17.7138 8.18733 17.6859 8.45233 17.658C8.78708 17.6161 9.12178 17.5883 9.44258 17.5743H9.56816L9.60998 17.4627C10.3492 15.6913 11.4232 14.1013 12.7482 12.7623C15.3704 10.1401 18.9829 8.52212 22.9999 8.52212C27.003 8.52212 30.6154 10.1401 33.2516 12.7623C34.5906 14.1013 35.6646 15.6913 36.3899 17.4627L36.4317 17.5743H36.5573C37.2407 17.6161 37.7986 17.6859 38.1892 17.7417H38.2171C38.3845 17.7696 38.51 17.7975 38.5797 17.8114L39.1237 17.923L39.4445 17.9927L39.3468 17.6719C38.5239 15.0637 37.0733 12.7344 35.1764 10.8375Z" fill="url(#paint2_linear_2_247)"/>
<path d="M56.4469 36.5434V13.5294C56.4469 13.4039 56.5585 13.2923 56.684 13.2923H62.6118C62.7374 13.2923 62.849 13.4039 62.849 13.5294V22.191C62.849 22.3166 62.9606 22.4281 63.0861 22.4281H71.148C71.2735 22.4281 71.3851 22.3166 71.3851 22.191V13.5294C71.3851 13.4039 71.4967 13.2923 71.6222 13.2923H77.564C77.6895 13.2923 77.8011 13.4039 77.8011 13.5294V36.5434C77.8011 36.6689 77.6895 36.7805 77.564 36.7805H71.6222C71.4967 36.7805 71.3851 36.6689 71.3851 36.5434V27.4633C71.3851 27.3378 71.2735 27.2262 71.148 27.2262H63.0861C62.9606 27.2262 62.849 27.3378 62.849 27.4633V36.5573C62.849 36.6828 62.7374 36.7944 62.6118 36.7944H56.684C56.5585 36.7805 56.4469 36.6829 56.4469 36.5434Z" fill="url(#paint3_linear_2_247)"/>
<path d="M87.0903 29.8205C86.9927 29.9181 86.9508 29.9739 86.8532 30.0716C86.895 31.2013 87.2159 32.08 87.8156 32.7217C88.4433 33.4051 89.336 33.7399 90.4936 33.7399C91.3584 33.7399 92.0837 33.5725 92.6835 33.2517C93.2135 32.9588 93.6319 32.5403 93.9388 31.9824C93.9946 31.8848 94.1201 31.829 94.2316 31.8848L98.1091 33.4469C98.2347 33.5027 98.2905 33.6422 98.2347 33.7677C97.7047 34.8975 96.826 35.7763 95.6125 36.4039C94.3014 37.0734 92.7113 37.4081 90.8144 37.4081C87.997 37.4081 85.7234 36.6271 84.0218 35.0649C82.3202 33.5027 81.4694 31.4385 81.4694 28.8721C81.4694 26.3475 82.3202 24.2553 84.0218 22.5816C85.7234 20.9078 87.8854 20.0849 90.4936 20.0849C93.1716 20.0849 95.2917 20.9357 96.8399 22.6234C98.3463 24.2693 99.1274 26.7659 99.1692 29.5973C99.1692 29.7229 99.0576 29.8345 98.9321 29.8345L87.0903 29.8205ZM93.2692 26.5986C93.4226 26.5986 93.5342 26.4591 93.5063 26.3196C93.3669 25.5246 93.0321 24.8829 92.5021 24.3808C91.9023 23.8229 91.1771 23.544 90.3124 23.544C89.3778 23.544 88.6386 23.795 88.0946 24.3111C87.5925 24.7714 87.2438 25.4409 87.0485 26.3056C87.0206 26.4591 87.1322 26.5986 87.2856 26.5986H93.2692Z" fill="url(#paint4_linear_2_247)"/>
<path d="M119.812 20.8241V36.5573C119.812 36.6828 119.7 36.7944 119.575 36.7944H114.805C114.679 36.7944 114.568 36.6828 114.568 36.5573V34.8836C114.568 34.6604 114.289 34.5628 114.149 34.7441C113.508 35.567 112.81 36.1947 112.043 36.6271C111.109 37.1571 110.007 37.4081 108.751 37.4081C106.589 37.4081 104.86 36.6131 103.577 35.037C102.28 33.4609 101.638 31.3408 101.638 28.6907C101.638 26.0546 102.307 23.9485 103.66 22.4002C105.013 20.8381 106.84 20.071 109.128 20.071C110.341 20.071 111.402 20.336 112.28 20.852C112.978 21.2565 113.591 21.8423 114.121 22.5955C114.247 22.7769 114.54 22.6792 114.54 22.4561V20.8241C114.54 20.6986 114.651 20.587 114.777 20.587H119.589C119.714 20.587 119.812 20.6846 119.812 20.8241ZM114.791 28.6628C114.791 27.4075 114.456 26.4033 113.787 25.6641C113.117 24.9248 112.197 24.5622 111.025 24.5622C109.853 24.5622 108.947 24.9248 108.277 25.6641C107.608 26.4033 107.273 27.3936 107.273 28.6768C107.273 29.9321 107.608 30.9363 108.277 31.6616C108.947 32.3869 109.867 32.7495 111.025 32.7495C112.197 32.7495 113.103 32.3869 113.787 31.6616C114.456 30.9224 114.791 29.9321 114.791 28.6628Z" fill="url(#paint5_linear_2_247)"/>
<path d="M124.289 36.5434V12.1486C124.289 12.023 124.401 11.9115 124.526 11.9115H129.785C129.91 11.9115 130.022 12.023 130.022 12.1486V36.5434C130.022 36.6689 129.91 36.7805 129.785 36.7805H124.526C124.401 36.7805 124.289 36.6829 124.289 36.5434Z" fill="url(#paint6_linear_2_247)"/>
<path d="M135.252 36.5434V24.8551C135.252 24.7295 135.141 24.618 135.015 24.618H133.063C132.937 24.618 132.825 24.5064 132.825 24.3808V20.8102C132.825 20.6847 132.937 20.5731 133.063 20.5731H135.015C135.141 20.5731 135.252 20.4615 135.252 20.3359V15.9703C135.252 15.8448 135.364 15.7332 135.489 15.7332H140.65C140.776 15.7332 140.887 15.8448 140.887 15.9703V20.3359C140.887 20.4615 140.999 20.5731 141.124 20.5731H143.077C143.203 20.5731 143.314 20.6847 143.314 20.8102V24.3808C143.314 24.5064 143.203 24.618 143.077 24.618H141.124C140.999 24.618 140.887 24.7295 140.887 24.8551V36.5434C140.887 36.6689 140.776 36.7805 140.65 36.7805H135.489C135.364 36.7805 135.252 36.6829 135.252 36.5434Z" fill="url(#paint7_linear_2_247)"/>
<path d="M145.978 36.5434V12.1486C145.978 12.023 146.09 11.9115 146.215 11.9115H151.362C151.487 11.9115 151.599 12.023 151.599 12.1486V20.6428C151.599 21.2147 151.585 21.7587 151.557 22.2468C151.543 22.3724 151.543 22.4839 151.529 22.6095C151.515 22.8466 151.808 22.9582 151.948 22.7629C152.534 21.9679 153.203 21.3402 153.942 20.9078C154.919 20.336 156.076 20.057 157.429 20.057C158.475 20.057 159.41 20.2244 160.233 20.5591C161.056 20.8939 161.711 21.382 162.227 22.0097C162.66 22.5537 162.967 23.2232 163.148 24.0042C163.329 24.7853 163.427 25.957 163.427 27.5052V36.5434C163.427 36.6689 163.315 36.7805 163.19 36.7805H157.931C157.806 36.7805 157.694 36.6689 157.694 36.5434V28.1049C157.694 26.8078 157.485 25.8732 157.067 25.2874C156.648 24.7016 155.965 24.4087 155.044 24.4087C153.859 24.4087 152.994 24.8411 152.45 25.7198C151.906 26.5985 151.627 28.0212 151.627 29.9879V36.5573C151.627 36.6828 151.515 36.7944 151.39 36.7944H146.243C146.076 36.7805 145.978 36.6829 145.978 36.5434Z" fill="url(#paint8_linear_2_247)"/>
<path d="M180.736 24.4506L181.043 24.9109C181.099 24.9945 181.099 25.0922 181.043 25.1759L180.736 25.6361L180.569 25.8872L178.56 28.886L177.444 30.5458L177.375 30.6574L176.315 32.2474L173.372 36.6549C173.33 36.7247 173.26 36.7526 173.177 36.7526H166.133C165.952 36.7526 165.84 36.5434 165.938 36.3899L172.535 26.7102L173.428 25.413L173.693 25.0224L174.739 23.4882L177.263 19.792C177.361 19.6525 177.556 19.6525 177.654 19.792L178.574 21.1728L180.583 24.1716L180.736 24.4506Z" fill="url(#paint9_linear_2_247)"/>
<path d="M188.728 13.6689L182.48 23.0419C182.382 23.1813 182.187 23.1813 182.089 23.0419L178.7 17.9648C178.644 17.8811 178.644 17.7835 178.7 17.6998L181.629 13.4039C181.671 13.3341 181.74 13.3062 181.824 13.3062H188.533C188.728 13.3062 188.826 13.5155 188.728 13.6689Z" fill="url(#paint10_linear_2_247)"/>
<path d="M188.533 36.7805H181.824C181.74 36.7805 181.671 36.7387 181.629 36.6829L177.459 30.5597L176.97 29.8484L174.739 26.5846L173.693 25.0503L173.428 24.6598L165.938 13.6828C165.826 13.5294 165.938 13.3202 166.133 13.3202H173.176C173.26 13.3202 173.33 13.362 173.372 13.4178L177.389 19.4293L177.459 19.5409L178.574 21.2007L180.583 24.1995L180.75 24.4506L181.141 25.0364L188.728 36.4178C188.84 36.5713 188.728 36.7805 188.533 36.7805Z" fill="url(#paint11_linear_2_247)"/>
<path d="M156.3 10.0982C153.775 12.2183 153.914 15.3147 153.998 16.04C154.012 16.1377 154.068 16.2074 154.166 16.2353C154.877 16.4445 157.89 17.1419 160.428 15.0218C162.953 12.9018 162.813 9.80532 162.729 9.08003C162.716 8.9824 162.66 8.91267 162.562 8.88477C161.851 8.67556 158.838 7.97816 156.3 10.0982Z" fill="url(#paint12_linear_2_247)"/>
<defs>
<linearGradient id="paint0_linear_2_247" x1="-17.9825" y1="9.20442" x2="215.595" y2="50.4891" gradientUnits="userSpaceOnUse">
<stop stop-color="#69A101"/>
<stop offset="1" stop-color="#002D3E"/>
</linearGradient>
<linearGradient id="paint1_linear_2_247" x1="-19.1044" y1="15.5496" x2="214.476" y2="56.8353" gradientUnits="userSpaceOnUse">
<stop stop-color="#69A101"/>
<stop offset="1" stop-color="#002D3E"/>
</linearGradient>
<linearGradient id="paint2_linear_2_247" x1="-17.4282" y1="6.06602" x2="216.152" y2="47.3515" gradientUnits="userSpaceOnUse">
<stop stop-color="#69A101"/>
<stop offset="1" stop-color="#002D3E"/>
</linearGradient>
<linearGradient id="paint3_linear_2_247" x1="-18.1197" y1="9.97641" x2="215.461" y2="51.2624" gradientUnits="userSpaceOnUse">
<stop stop-color="#69A101"/>
<stop offset="1" stop-color="#002D3E"/>
</linearGradient>
<linearGradient id="paint4_linear_2_247" x1="-18.0432" y1="9.54327" x2="215.538" y2="50.8292" gradientUnits="userSpaceOnUse">
<stop stop-color="#69A101"/>
<stop offset="1" stop-color="#002D3E"/>
</linearGradient>
<linearGradient id="paint5_linear_2_247" x1="-17.3831" y1="5.80657" x2="216.198" y2="47.0927" gradientUnits="userSpaceOnUse">
<stop stop-color="#69A101"/>
<stop offset="1" stop-color="#002D3E"/>
</linearGradient>
<linearGradient id="paint6_linear_2_247" x1="-16.1813" y1="-0.981262" x2="217.397" y2="40.3036" gradientUnits="userSpaceOnUse">
<stop stop-color="#69A101"/>
<stop offset="1" stop-color="#002D3E"/>
</linearGradient>
<linearGradient id="paint7_linear_2_247" x1="-16.1805" y1="-0.994899" x2="217.4" y2="40.2909" gradientUnits="userSpaceOnUse">
<stop stop-color="#69A101"/>
<stop offset="1" stop-color="#002D3E"/>
</linearGradient>
<linearGradient id="paint8_linear_2_247" x1="-15.527" y1="-4.68805" x2="218.052" y2="36.5974" gradientUnits="userSpaceOnUse">
<stop stop-color="#69A101"/>
<stop offset="1" stop-color="#002D3E"/>
</linearGradient>
<linearGradient id="paint9_linear_2_247" x1="-15.4992" y1="-4.85506" x2="218.082" y2="36.4311" gradientUnits="userSpaceOnUse">
<stop stop-color="#69A101"/>
<stop offset="1" stop-color="#002D3E"/>
</linearGradient>
<linearGradient id="paint10_linear_2_247" x1="-13.3676" y1="-16.913" x2="220.214" y2="24.3729" gradientUnits="userSpaceOnUse">
<stop stop-color="#69A101"/>
<stop offset="1" stop-color="#002D3E"/>
</linearGradient>
<linearGradient id="paint11_linear_2_247" x1="-14.7757" y1="-8.94346" x2="218.805" y2="32.3423" gradientUnits="userSpaceOnUse">
<stop stop-color="#69A101"/>
<stop offset="1" stop-color="#002D3E"/>
</linearGradient>
<linearGradient id="paint12_linear_2_247" x1="-13.2146" y1="-17.7677" x2="220.364" y2="23.5174" gradientUnits="userSpaceOnUse">
<stop stop-color="#69A101"/>
<stop offset="1" stop-color="#002D3E"/>
</linearGradient>
</defs>
</svg>
